<svg width="14" height="14" viewBox="0 0 14 14" fill="none" xmlns="http://www.w3.org/2000/svg">
<path fill-rule="evenodd" clip-rule="evenodd" d="M6.4165 7.92521V1.16683C6.4165 0.844663 6.67767 0.583496 6.99984 0.583496C7.322 0.583496 7.58317 0.844663 7.58317 1.16683V7.9252L8.92069 6.58768C9.1485 6.35988 9.51784 6.35988 9.74565 6.58768C9.97345 6.81549 9.97345 7.18484 9.74565 7.41264L7.4129 9.74539L7.41232 9.74597M6.4165 7.92521L5.07898 6.58768C4.85118 6.35988 4.48183 6.35988 4.25402 6.58768C4.02622 6.81549 4.02622 7.18484 4.25402 7.41264L6.58736 9.74597C6.64329 9.8019 6.70775 9.8441 6.77655 9.87257C6.84533 9.90109 6.92074 9.91683 6.99984 9.91683C7.07893 9.91683 7.15435 9.90109 7.22313 9.87257C7.29037 9.84475 7.35346 9.80381 7.40849 9.74977M1.1665 9.91683V11.6668C1.1665 12.6333 1.95001 13.4168 2.9165 13.4168H11.0832C12.0497 13.4168 12.8332 12.6333 12.8332 11.6668V9.91683C12.8332 9.59466 12.572 9.3335 12.2498 9.3335C11.9277 9.3335 11.6665 9.59466 11.6665 9.91683V11.6668C11.6665 11.989 11.4053 12.2502 11.0832 12.2502H2.9165C2.59434 12.2502 2.33317 11.989 2.33317 11.6668V9.91683C2.33317 9.59466 2.072 9.3335 1.74984 9.3335C1.42767 9.3335 1.1665 9.59466 1.1665 9.91683Z" fill="black"/>
<mask id="mask0_624_5198" style="mask-type:luminance" maskUnits="userSpaceOnUse" x="1" y="0" width="12" height="14">
<path fill-rule="evenodd" clip-rule="evenodd" d="M6.4165 7.92521V1.16683C6.4165 0.844663 6.67767 0.583496 6.99984 0.583496C7.322 0.583496 7.58317 0.844663 7.58317 1.16683V7.9252L8.92069 6.58768C9.1485 6.35988 9.51784 6.35988 9.74565 6.58768C9.97345 6.81549 9.97345 7.18484 9.74565 7.41264L7.4129 9.74539L7.41232 9.74597M6.4165 7.92521L5.07898 6.58768C4.85118 6.35988 4.48183 6.35988 4.25402 6.58768C4.02622 6.81549 4.02622 7.18484 4.25402 7.41264L6.58736 9.74597C6.64329 9.8019 6.70775 9.8441 6.77655 9.87257C6.84533 9.90109 6.92074 9.91683 6.99984 9.91683C7.07893 9.91683 7.15435 9.90109 7.22313 9.87257C7.29037 9.84475 7.35346 9.80381 7.40849 9.74977M1.1665 9.91683V11.6668C1.1665 12.6333 1.95001 13.4168 2.9165 13.4168H11.0832C12.0497 13.4168 12.8332 12.6333 12.8332 11.6668V9.91683C12.8332 9.59466 12.572 9.3335 12.2498 9.3335C11.9277 9.3335 11.6665 9.59466 11.6665 9.91683V11.6668C11.6665 11.989 11.4053 12.2502 11.0832 12.2502H2.9165C2.59434 12.2502 2.33317 11.989 2.33317 11.6668V9.91683C2.33317 9.59466 2.072 9.3335 1.74984 9.3335C1.42767 9.3335 1.1665 9.59466 1.1665 9.91683Z" fill="white"/>
</mask>
<g mask="url(#mask0_624_5198)">
<rect width="14" height="14" fill="white"/>
</g>
</svg>
