<svg width="17" height="15" viewBox="0 0 17 15" fill="none" xmlns="http://www.w3.org/2000/svg">
<path d="M3 10.5H2.25C1.83579 10.5 1.5 10.1642 1.5 9.75V2.25C1.5 1.83579 1.83579 1.5 2.25 1.5H14.25C14.6642 1.5 15 1.83579 15 2.25V9.75C15 10.1642 14.6642 10.5 14.25 10.5H13.5C13.0858 10.5 12.75 10.8358 12.75 11.25C12.75 11.6642 13.0858 12 13.5 12H14.25C15.4926 12 16.5 10.9926 16.5 9.75V2.25C16.5 1.00736 15.4926 0 14.25 0H2.25C1.00736 0 0 1.00736 0 2.25V9.75C0 10.9926 1.00736 12 2.25 12H3C3.41421 12 3.75 11.6642 3.75 11.25C3.75 10.8358 3.41421 10.5 3 10.5Z" fill="white" fill-opacity="0.74"/>
<path fill-rule="evenodd" clip-rule="evenodd" d="M8.82618 9.26986L12.5762 13.7699C12.9833 14.2584 12.6359 15 12 15H4.50001C3.86413 15 3.51677 14.2584 3.92384 13.7699L7.67384 9.26986C7.97369 8.91005 8.52633 8.91005 8.82618 9.26986ZM10.3988 13.5H6.10135L8.25007 10.9215L10.3988 13.5Z" fill="white" fill-opacity="0.74"/>
</svg>
