<svg width="14" height="14" viewBox="0 0 14 14" fill="none" xmlns="http://www.w3.org/2000/svg">
<path fill-rule="evenodd" clip-rule="evenodd" d="M11.0832 1.1665H2.9165C1.95001 1.1665 1.1665 1.95001 1.1665 2.9165V11.0832C1.1665 12.0497 1.95001 12.8332 2.9165 12.8332H11.0832C12.0497 12.8332 12.8332 12.0497 12.8332 11.0832V2.9165C12.8332 1.95001 12.0497 1.1665 11.0832 1.1665ZM2.33317 2.9165C2.33317 2.59434 2.59434 2.33317 2.9165 2.33317H11.0832C11.4053 2.33317 11.6665 2.59434 11.6665 2.9165V11.0832C11.6665 11.4053 11.4053 11.6665 11.0832 11.6665H2.9165C2.59434 11.6665 2.33317 11.4053 2.33317 11.0832V2.9165ZM6.4165 7.58317V9.33317C6.4165 9.65534 6.67767 9.9165 6.99984 9.9165C7.322 9.9165 7.58317 9.65534 7.58317 9.33317V7.58317H9.33317C9.65534 7.58317 9.9165 7.322 9.9165 6.99984C9.9165 6.67767 9.65534 6.4165 9.33317 6.4165H7.58317V4.6665C7.58317 4.34434 7.322 4.08317 6.99984 4.08317C6.67767 4.08317 6.4165 4.34434 6.4165 4.6665V6.4165H4.6665C4.34434 6.4165 4.08317 6.67767 4.08317 6.99984C4.08317 7.322 4.34434 7.58317 4.6665 7.58317H6.4165Z" fill="black"/>
<mask id="mask0_624_5210" style="mask-type:luminance" maskUnits="userSpaceOnUse" x="1" y="1" width="12" height="12">
<path fill-rule="evenodd" clip-rule="evenodd" d="M11.0832 1.1665H2.9165C1.95001 1.1665 1.1665 1.95001 1.1665 2.9165V11.0832C1.1665 12.0497 1.95001 12.8332 2.9165 12.8332H11.0832C12.0497 12.8332 12.8332 12.0497 12.8332 11.0832V2.9165C12.8332 1.95001 12.0497 1.1665 11.0832 1.1665ZM2.33317 2.9165C2.33317 2.59434 2.59434 2.33317 2.9165 2.33317H11.0832C11.4053 2.33317 11.6665 2.59434 11.6665 2.9165V11.0832C11.6665 11.4053 11.4053 11.6665 11.0832 11.6665H2.9165C2.59434 11.6665 2.33317 11.4053 2.33317 11.0832V2.9165ZM6.4165 7.58317V9.33317C6.4165 9.65534 6.67767 9.9165 6.99984 9.9165C7.322 9.9165 7.58317 9.65534 7.58317 9.33317V7.58317H9.33317C9.65534 7.58317 9.9165 7.322 9.9165 6.99984C9.9165 6.67767 9.65534 6.4165 9.33317 6.4165H7.58317V4.6665C7.58317 4.34434 7.322 4.08317 6.99984 4.08317C6.67767 4.08317 6.4165 4.34434 6.4165 4.6665V6.4165H4.6665C4.34434 6.4165 4.08317 6.67767 4.08317 6.99984C4.08317 7.322 4.34434 7.58317 4.6665 7.58317H6.4165Z" fill="white"/>
</mask>
<g mask="url(#mask0_624_5210)">
<rect width="14" height="14" fill="white"/>
</g>
</svg>
