<svg width="17" height="17" viewBox="0 0 17 17" fill="none" xmlns="http://www.w3.org/2000/svg">
<path fill-rule="evenodd" clip-rule="evenodd" d="M0.772727 13.1364C-0.257576 13.1364 -0.257576 11.5909 0.772727 11.5909C1.62626 11.5909 2.31818 10.899 2.31818 10.0455V6.18182C2.31818 2.76769 5.08588 0 8.5 0C11.9141 0 14.6818 2.76769 14.6818 6.18182V10.0455C14.6818 10.899 15.3737 11.5909 16.2273 11.5909C17.2576 11.5909 17.2576 13.1364 16.2273 13.1364H0.772727ZM13.1364 10.0455V6.18182C13.1364 3.62123 11.0606 1.54545 8.50001 1.54545C5.93941 1.54545 3.86364 3.62123 3.86364 6.18182V10.0455C3.86364 10.6084 3.71313 11.1363 3.45014 11.5909H13.5499C13.2869 11.1363 13.1364 10.6084 13.1364 10.0455ZM8.49999 16.9973C9.3265 16.9973 10.0905 16.5572 10.5052 15.8423C10.804 15.3271 10.4324 14.6818 9.8368 14.6818H7.16317C6.56762 14.6818 6.19593 15.3271 6.49476 15.8423C6.90948 16.5572 7.67347 16.9973 8.49999 16.9973Z" fill="white" fill-opacity="0.74"/>
</svg>
