<svg width="14" height="14" viewBox="0 0 14 14" fill="none" xmlns="http://www.w3.org/2000/svg">
<path fill-rule="evenodd" clip-rule="evenodd" d="M8.84204 4.55883C9.2649 4.98573 9.85149 5.25016 10.4998 5.25016C11.7885 5.25016 12.8332 4.20549 12.8332 2.91683C12.8332 1.62816 11.7885 0.583496 10.4998 0.583496C9.21117 0.583496 8.1665 1.62816 8.1665 2.91683C8.1665 3.13676 8.19693 3.34958 8.2538 3.55131L5.15763 5.35817C4.73478 4.93126 4.14819 4.66683 3.49984 4.66683C2.21117 4.66683 1.1665 5.7115 1.1665 7.00016C1.1665 8.28883 2.21117 9.3335 3.49984 9.3335C4.14831 9.3335 4.73499 9.06896 5.15787 8.64192L8.25454 10.4464C8.19719 10.6489 8.1665 10.8626 8.1665 11.0835C8.1665 12.3722 9.21117 13.4168 10.4998 13.4168C11.7885 13.4168 12.8332 12.3722 12.8332 11.0835C12.8332 9.79483 11.7885 8.75016 10.4998 8.75016C9.85246 8.75016 9.26665 9.01381 8.84394 9.43959L5.74596 7.63432C5.80278 7.43268 5.83317 7.21997 5.83317 7.00016C5.83317 6.78024 5.80274 6.56742 5.74587 6.36568L8.84204 4.55883ZM9.50834 3.53198C9.7142 3.86308 10.0813 4.0835 10.4998 4.0835C11.1442 4.0835 11.6665 3.56116 11.6665 2.91683C11.6665 2.2725 11.1442 1.75016 10.4998 1.75016C9.8555 1.75016 9.33317 2.2725 9.33317 2.91683C9.33317 3.11943 9.38481 3.30997 9.47565 3.476C9.48159 3.485 9.48732 3.49422 9.49282 3.50365C9.49828 3.51301 9.50346 3.52246 9.50834 3.53198ZM4.49131 6.38496C4.4962 6.39451 4.50138 6.40397 4.50685 6.41335C4.51236 6.42279 4.5181 6.43202 4.52405 6.44104C4.61487 6.60706 4.6665 6.79758 4.6665 7.00016C4.6665 7.20275 4.61487 7.39328 4.52404 7.5593C4.51802 7.56842 4.51223 7.57775 4.50666 7.5873C4.50126 7.59657 4.49615 7.60592 4.49132 7.61534C4.28546 7.94642 3.91839 8.16683 3.49984 8.16683C2.85551 8.16683 2.33317 7.64449 2.33317 7.00016C2.33317 6.35583 2.85551 5.8335 3.49984 5.8335C3.91838 5.8335 4.28545 6.05389 4.49131 6.38496ZM9.49884 10.4964C9.48655 10.5174 9.47315 10.5375 9.45874 10.5564C9.37843 10.7147 9.33317 10.8938 9.33317 11.0835C9.33317 11.7278 9.8555 12.2502 10.4998 12.2502C11.1442 12.2502 11.6665 11.7278 11.6665 11.0835C11.6665 10.4392 11.1442 9.91683 10.4998 9.91683C10.0957 9.91683 9.73951 10.1223 9.53015 10.4346C9.52105 10.4555 9.51062 10.4761 9.49884 10.4964Z" fill="black"/>
<mask id="mask0_624_5166" style="mask-type:luminance" maskUnits="userSpaceOnUse" x="1" y="0" width="12" height="14">
<path fill-rule="evenodd" clip-rule="evenodd" d="M8.84204 4.55883C9.2649 4.98573 9.85149 5.25016 10.4998 5.25016C11.7885 5.25016 12.8332 4.20549 12.8332 2.91683C12.8332 1.62816 11.7885 0.583496 10.4998 0.583496C9.21117 0.583496 8.1665 1.62816 8.1665 2.91683C8.1665 3.13676 8.19693 3.34958 8.2538 3.55131L5.15763 5.35817C4.73478 4.93126 4.14819 4.66683 3.49984 4.66683C2.21117 4.66683 1.1665 5.7115 1.1665 7.00016C1.1665 8.28883 2.21117 9.3335 3.49984 9.3335C4.14831 9.3335 4.73499 9.06896 5.15787 8.64192L8.25454 10.4464C8.19719 10.6489 8.1665 10.8626 8.1665 11.0835C8.1665 12.3722 9.21117 13.4168 10.4998 13.4168C11.7885 13.4168 12.8332 12.3722 12.8332 11.0835C12.8332 9.79483 11.7885 8.75016 10.4998 8.75016C9.85246 8.75016 9.26665 9.01381 8.84394 9.43959L5.74596 7.63432C5.80278 7.43268 5.83317 7.21997 5.83317 7.00016C5.83317 6.78024 5.80274 6.56742 5.74587 6.36568L8.84204 4.55883ZM9.50834 3.53198C9.7142 3.86308 10.0813 4.0835 10.4998 4.0835C11.1442 4.0835 11.6665 3.56116 11.6665 2.91683C11.6665 2.2725 11.1442 1.75016 10.4998 1.75016C9.8555 1.75016 9.33317 2.2725 9.33317 2.91683C9.33317 3.11943 9.38481 3.30997 9.47565 3.476C9.48159 3.485 9.48732 3.49422 9.49282 3.50365C9.49828 3.51301 9.50346 3.52246 9.50834 3.53198ZM4.49131 6.38496C4.4962 6.39451 4.50138 6.40397 4.50685 6.41335C4.51236 6.42279 4.5181 6.43202 4.52405 6.44104C4.61487 6.60706 4.6665 6.79758 4.6665 7.00016C4.6665 7.20275 4.61487 7.39328 4.52404 7.5593C4.51802 7.56842 4.51223 7.57775 4.50666 7.5873C4.50126 7.59657 4.49615 7.60592 4.49132 7.61534C4.28546 7.94642 3.91839 8.16683 3.49984 8.16683C2.85551 8.16683 2.33317 7.64449 2.33317 7.00016C2.33317 6.35583 2.85551 5.8335 3.49984 5.8335C3.91838 5.8335 4.28545 6.05389 4.49131 6.38496ZM9.49884 10.4964C9.48655 10.5174 9.47315 10.5375 9.45874 10.5564C9.37843 10.7147 9.33317 10.8938 9.33317 11.0835C9.33317 11.7278 9.8555 12.2502 10.4998 12.2502C11.1442 12.2502 11.6665 11.7278 11.6665 11.0835C11.6665 10.4392 11.1442 9.91683 10.4998 9.91683C10.0957 9.91683 9.73951 10.1223 9.53015 10.4346C9.52105 10.4555 9.51062 10.4761 9.49884 10.4964Z" fill="white"/>
</mask>
<g mask="url(#mask0_624_5166)">
<rect width="14" height="14" fill="white"/>
</g>
</svg>
