<svg width="10" height="11" viewBox="0 0 10 11" fill="none" xmlns="http://www.w3.org/2000/svg">
<path fill-rule="evenodd" clip-rule="evenodd" d="M6.57903 3.40743C6.94148 3.77334 7.44427 4 8 4C9.10457 4 10 3.10457 10 2C10 0.89543 9.10457 0 8 0C6.89543 0 6 0.89543 6 2C6 2.18851 6.02608 2.37093 6.07483 2.54384L3.42097 4.09257C3.05852 3.72666 2.55573 3.5 2 3.5C0.89543 3.5 0 4.39543 0 5.5C0 6.60457 0.89543 7.5 2 7.5C2.55583 7.5 3.0587 7.27326 3.42117 6.90722L6.07546 8.45394C6.0263 8.62751 6 8.81068 6 9C6 10.1046 6.89543 11 8 11C9.10457 11 10 10.1046 10 9C10 7.89543 9.10457 7 8 7C7.4451 7 6.94298 7.22598 6.58066 7.59093L3.92525 6.04357C3.97395 5.87073 4 5.68841 4 5.5C4 5.31149 3.97392 5.12907 3.92517 4.95616L6.57903 3.40743ZM7.15013 2.52725C7.32657 2.81106 7.64122 3 8 3C8.55228 3 9 2.55228 9 2C9 1.44772 8.55228 1 8 1C7.44772 1 7 1.44772 7 2C7 2.17367 7.04427 2.33699 7.12214 2.47931C7.12723 2.48702 7.13213 2.49491 7.13684 2.50299C7.14152 2.511 7.14595 2.51909 7.15013 2.52725ZM2.84983 4.97268C2.85402 4.98086 2.85846 4.98898 2.86315 4.99702C2.86788 5.00511 2.8728 5.01303 2.8779 5.02076C2.95574 5.16306 3 5.32636 3 5.5C3 5.67364 2.95574 5.83695 2.87789 5.97925C2.87273 5.98707 2.86777 5.99507 2.86299 6.00326C2.85836 6.01121 2.85398 6.01922 2.84983 6.02731C2.67338 6.31108 2.35875 6.5 2 6.5C1.44772 6.5 1 6.05228 1 5.5C1 4.94772 1.44772 4.5 2 4.5C2.35875 4.5 2.67337 4.68891 2.84983 4.97268ZM7.142 8.49674C7.13147 8.51481 7.11998 8.53198 7.10763 8.54821C7.0388 8.68391 7 8.83743 7 9C7 9.55229 7.44772 10 8 10C8.55229 10 9 9.55229 9 9C9 8.44771 8.55229 8 8 8C7.65357 8 7.34829 8.17616 7.16884 8.44378C7.16103 8.46173 7.1521 8.47941 7.142 8.49674Z" fill="#FFFAFA"/>
</svg>
